<svg xmlns="http://www.w3.org/2000/svg" viewBox="0 0 1024 1024">
  <rect width="1024" height="1024" fill="#050505"/>
  <g transform="translate(107.2 115.2) scale(3.2)">
    <path
      fill="#8b5cf6"
      d="M42,193.2V108c0-49,37-84,84-84s84,35,84,84v96c0,9-5,18-12,24c-6,5-14,4-19-2c-4-5-5-12-9-15s-10-3-14,0c-5,4-6,12-11,17s-13,6-18,0c-3.3-4-3.2-6.3-7.6-13.7c-1.4-2.4-2.6-3.9-4.6-5c-0.7-0.4-2.9-1.5-5.5-0.9c-0.3,0.1-1.9,0.5-3.4,2c-4.3,4.2-0.5,10.3-4.8,15.4c-0.4,0.4-2.3,2.7-5.8,4.1c-0.8,0.3-5.4,2.1-9.9,0.3c-5.1-2-8.3-8.1-11.6-14.3c-1.5-2.8-2.2-4.8-4.4-5.8c-2.4-1.1-6.1-1-8.2,1c-3.8,3.8,1.2,11.6-2.4,15c-2,1.9-5.7,1.3-7.5,0.7C40.4,222.9,41.9,194.6,42,193.2z"
    />
    <circle fill="#ffffff" cx="104" cy="107" r="20"/>
    <circle fill="#ffffff" cx="168" cy="107" r="20"/>
  </g>
</svg>
